PathFileType	4	(X/Y/Z)	C:\Users\italobelli\Desktop\GitHub\PTbot_officialCBL\Personal_Results\SHRUG02_noisy1.trc
DataRate	CameraRate	NumFrames	NumMarkers	Units	OrigDataRate	OrigDataStartFrame	OrigNumFrames
112.250000	112.250000	25	9	m	112.250000	338	450
Frame#	Time		gu		centelbow		EpL		centpxt8		centijc7		ij		ts		aa		ai
			X1	Y1	Z1	X2	Y2	Z2	X3	Y3	Z3	X4	Y4	Z4	X5	Y5	Z5	X6	Y6	Z6	X7	Y7	Z7	X8	Y8	Z8	X9	Y9	Z9

338	3.0022	-0.081346	-0.012573	0.16252	-0.10615	-0.26733	0.20537	-0.085035	-0.26231	0.2292	-0.046816	-0.15316	-0.008669	-0.046816	0.031938	-0.008669	0	0	0	-0.13817	0.03031	0.054938	-0.10621	0.025344	0.16973	-0.16104	-0.080659	0.061919
339	3.0111	-0.081293	-0.012561	0.16255	-0.10631	-0.26726	0.20545	-0.085211	-0.26225	0.22928	-0.046816	-0.15316	-0.008669	-0.046816	0.031938	-0.008669	0	0	0	-0.13815	0.030321	0.054983	-0.10615	0.025373	0.16977	-0.16102	-0.080647	0.061983
340	3.02	-0.081236	-0.01255	0.16258	-0.10647	-0.26719	0.20554	-0.085384	-0.26218	0.22936	-0.046816	-0.15316	-0.008669	-0.046816	0.031938	-0.008669	0	0	0	-0.13812	0.030331	0.055031	-0.1061	0.025403	0.16982	-0.16099	-0.080635	0.062049
341	3.029	-0.081174	-0.012539	0.16262	-0.10662	-0.26712	0.20563	-0.085553	-0.26212	0.22945	-0.046816	-0.15316	-0.008669	-0.046816	0.031938	-0.008669	0	0	0	-0.1381	0.030341	0.05508	-0.10604	0.025433	0.16986	-0.16096	-0.080624	0.06212
342	3.0379	-0.081109	-0.012527	0.16266	-0.10678	-0.26705	0.20572	-0.08572	-0.26205	0.22953	-0.046816	-0.15316	-0.008669	-0.046816	0.031938	-0.008669	0	0	0	-0.13807	0.030351	0.055132	-0.10598	0.025462	0.16991	-0.16094	-0.080613	0.062193
343	3.0468	-0.081039	-0.012516	0.16271	-0.10694	-0.26698	0.20581	-0.085884	-0.26198	0.22962	-0.046816	-0.15316	-0.008669	-0.046816	0.031938	-0.008669	0	0	0	-0.13805	0.030361	0.055185	-0.10592	0.025492	0.16995	-0.16091	-0.080602	0.06227
344	3.0557	-0.080966	-0.012505	0.16276	-0.1071	-0.26691	0.20591	-0.086046	-0.26192	0.22971	-0.046816	-0.15316	-0.008669	-0.046816	0.031938	-0.008669	0	0	0	-0.13802	0.03037	0.05524	-0.10586	0.025521	0.17	-0.16088	-0.080591	0.062349
345	3.0646	-0.080888	-0.012494	0.16282	-0.10725	-0.26684	0.20601	-0.086205	-0.26185	0.2298	-0.046816	-0.15316	-0.008669	-0.046816	0.031938	-0.008669	0	0	0	-0.13799	0.030379	0.055297	-0.1058	0.025551	0.17005	-0.16085	-0.080581	0.062431
346	3.0735	-0.080808	-0.012484	0.16287	-0.10741	-0.26677	0.20611	-0.086362	-0.26179	0.22989	-0.046816	-0.15316	-0.008669	-0.046816	0.031938	-0.008669	0	0	0	-0.13797	0.030388	0.055356	-0.10573	0.02558	0.1701	-0.16082	-0.080571	0.062516
347	3.0824	-0.080724	-0.012473	0.16293	-0.10757	-0.2667	0.20621	-0.086517	-0.26172	0.22998	-0.046816	-0.15316	-0.008669	-0.046816	0.031938	-0.008669	0	0	0	-0.13794	0.030396	0.055416	-0.10566	0.025609	0.17015	-0.16079	-0.080561	0.062603
348	3.0913	-0.080636	-0.012462	0.163	-0.10772	-0.26663	0.20632	-0.08667	-0.26165	0.23008	-0.046816	-0.15316	-0.008669	-0.046816	0.031938	-0.008669	0	0	0	-0.13791	0.030405	0.055477	-0.10559	0.025638	0.17021	-0.16076	-0.080551	0.062693
349	3.1002	-0.080546	-0.012452	0.16306	-0.10788	-0.26656	0.20642	-0.086821	-0.26159	0.23018	-0.046816	-0.15316	-0.008669	-0.046816	0.031938	-0.008669	0	0	0	-0.13788	0.030413	0.05554	-0.10552	0.025667	0.17026	-0.16072	-0.080542	0.062785
350	3.1091	-0.080453	-0.012441	0.16313	-0.10803	-0.26649	0.20653	-0.08697	-0.26152	0.23028	-0.046816	-0.15316	-0.008669	-0.046816	0.031938	-0.008669	0	0	0	-0.13786	0.030421	0.055605	-0.10545	0.025696	0.17031	-0.16069	-0.080532	0.062879
351	3.118	-0.080358	-0.012431	0.16321	-0.10819	-0.26642	0.20665	-0.087117	-0.26145	0.23038	-0.046816	-0.15316	-0.008669	-0.046816	0.031938	-0.008669	0	0	0	-0.13783	0.030429	0.05567	-0.10538	0.025725	0.17037	-0.16066	-0.080523	0.062975
352	3.1269	-0.08026	-0.01242	0.16328	-0.10835	-0.26635	0.20676	-0.087263	-0.26138	0.23048	-0.046816	-0.15316	-0.008669	-0.046816	0.031938	-0.008669	0	0	0	-0.1378	0.030437	0.055737	-0.10531	0.025755	0.17042	-0.16063	-0.080514	0.063072
353	3.1359	-0.08016	-0.01241	0.16336	-0.1085	-0.26627	0.20687	-0.087407	-0.26132	0.23058	-0.046816	-0.15316	-0.008669	-0.046816	0.031938	-0.008669	0	0	0	-0.13777	0.030445	0.055804	-0.10523	0.025784	0.17048	-0.16059	-0.080505	0.063171
354	3.1448	-0.080058	-0.0124	0.16344	-0.10866	-0.2662	0.20699	-0.08755	-0.26125	0.23069	-0.046816	-0.15316	-0.008669	-0.046816	0.031938	-0.008669	0	0	0	-0.13774	0.030452	0.055872	-0.10515	0.025813	0.17053	-0.16056	-0.080496	0.063272
355	3.1537	-0.079953	-0.012389	0.16352	-0.10881	-0.26613	0.20711	-0.087691	-0.26118	0.23079	-0.046816	-0.15316	-0.008669	-0.046816	0.031938	-0.008669	0	0	0	-0.13771	0.03046	0.055942	-0.10508	0.025842	0.17059	-0.16053	-0.080487	0.063374
356	3.1626	-0.079847	-0.012379	0.1636	-0.10897	-0.26605	0.20723	-0.087832	-0.26111	0.2309	-0.046816	-0.15316	-0.008669	-0.046816	0.031938	-0.008669	0	0	0	-0.13768	0.030467	0.056012	-0.105	0.025871	0.17065	-0.1605	-0.080478	0.063478
357	3.1715	-0.07974	-0.012368	0.16369	-0.10913	-0.26598	0.20735	-0.087971	-0.26104	0.23101	-0.046816	-0.15316	-0.008669	-0.046816	0.031938	-0.008669	0	0	0	-0.13765	0.030475	0.056082	-0.10492	0.0259	0.17071	-0.16046	-0.080469	0.063582
358	3.1804	-0.079631	-0.012358	0.16377	-0.10928	-0.2659	0.20748	-0.08811	-0.26097	0.23112	-0.046816	-0.15316	-0.008669	-0.046816	0.031938	-0.008669	0	0	0	-0.13762	0.030482	0.056153	-0.10485	0.025929	0.17076	-0.16043	-0.08046	0.063687
359	3.1893	-0.079521	-0.012348	0.16386	-0.10944	-0.26583	0.2076	-0.088248	-0.2609	0.23123	-0.046816	-0.15316	-0.008669	-0.046816	0.031938	-0.008669	0	0	0	-0.1376	0.03049	0.056225	-0.10477	0.025958	0.17082	-0.16039	-0.080451	0.063793
360	3.1982	-0.07941	-0.012337	0.16395	-0.1096	-0.26575	0.20773	-0.088385	-0.26083	0.23134	-0.046816	-0.15316	-0.008669	-0.046816	0.031938	-0.008669	0	0	0	-0.13757	0.030497	0.056296	-0.10469	0.025988	0.17088	-0.16036	-0.080443	0.0639
361	3.2071	-0.079298	-0.012326	0.16404	-0.10976	-0.26567	0.20786	-0.088522	-0.26076	0.23146	-0.046816	-0.15316	-0.008669	-0.046816	0.031938	-0.008669	0	0	0	-0.13754	0.030505	0.056369	-0.10461	0.026017	0.17094	-0.16033	-0.080434	0.064007
362	3.216	-0.079185	-0.012316	0.16413	-0.10991	-0.2656	0.20798	-0.088658	-0.26069	0.23157	-0.046816	-0.15316	-0.008669	-0.046816	0.031938	-0.008669	0	0	0	-0.13751	0.030512	0.056441	-0.10453	0.026047	0.171	-0.16029	-0.080425	0.064114
